<?xml version="1.0" encoding="UTF-8"?>
<svg id="Capa_1" data-name="Capa 1" xmlns="http://www.w3.org/2000/svg" viewBox="0 0 841.89 595.28">
  <defs>
    <style>
      .cls-1 {
        fill: #1d1d1b;
      }
    </style>
  </defs>
  <path class="cls-1" d="M493.57,193.64c2.79-2.9,5.11-6.22,6.87-9.83l2.03-4.16c.24-.49-.41-.93-.78-.52l-2.06,2.29c-.88.98-2.49.15-2.2-1.14.98-4.37,2.47-10.93,3.67-16.25,1.28-5.67.09-11.61-3.29-16.34l-.15-.21c-2.98-4.17-7.18-7.33-12.01-9.06l-.38-.14c-.65-.23-1.16.57-.68,1.06l.18.18c2.08,2.11,3.07,5.05,2.68,7.99l-.04.31c-.14,1.08-1.55,1.4-2.16.46l-.06-.09c-2.12-3.29-5.78-5.26-9.69-5.22-1.91.02-3.93.05-5.53.07-.94.01-1.31,1.22-.51,1.77l.09.06c3.37,2.33,5.97,5.61,7.46,9.42l.79,2.02s-1.8-.46-3.55-.91c-.61-.16-.96.66-.37,1.04l.23.15c15.02,9.66,18.05,30.36,6.43,43.92l-5.54,6.47c-.26.29-.74.03-.64-.35h0c.91-3.34.99-6.84.24-10.22l-.52-2.35c-.2-.92-1.51-.94-1.75-.03l-1.75,6.76c-1.64,6.3-6.14,11.47-12.16,13.94l-9.36,3.85c-1.7.7-3.61-.32-3.98-2.11l-.23-1.09c-.87-4.15-.97-8.43-.29-12.62.1-.61.19-1.2.28-1.74.1-.63-.71-.99-1.12-.46l-.07.09c-3.88,4.93-5.38,11.33-4.09,17.47l.43,2.03c.21.98-.01,2-.6,2.81-.39.54-.82,1.14-1.15,1.59-.3.41-.84.55-1.3.33-.87-.42-1.9-.29-2.68.27l-1.92,1.37-1.48.29c-1.32.26-2.68.1-3.9-.47h0c-3.64-1.68-7.82-1.73-11.49-.13l-.48.21c-1.19.52-2.5.66-3.77.41l-1.56-.31-1.92-1.37c-.78-.56-1.81-.68-2.68-.27-.46.22-1.01.08-1.3-.33-.33-.45-.76-1.05-1.15-1.59-.59-.81-.81-1.83-.6-2.82l.43-2.03c1.29-6.14-.21-12.54-4.09-17.47l-.07-.09c-.42-.53-1.23-.18-1.12.46.09.53.18,1.13.28,1.74.67,4.19.57,8.47-.29,12.62l-.23,1.09c-.37,1.79-2.29,2.81-3.98,2.11l-9.36-3.85c-6.02-2.47-10.53-7.64-12.16-13.94l-1.75-6.76c-.24-.91-1.54-.89-1.75.03l-.52,2.35c-.75,3.37-.67,6.88.24,10.22h0c.1.38-.37.64-.64.35l-5.54-6.47c-11.62-13.56-8.6-34.26,6.43-43.92l.23-.15c.59-.38.24-1.2-.37-1.04-1.75.45-3.55.91-3.55.91l.79-2.01c1.49-3.82,4.09-7.1,7.46-9.43l.09-.06c.79-.55.42-1.76-.51-1.77-1.59-.02-3.61-.04-5.53-.07-3.91-.05-7.57,1.92-9.69,5.22l-.06.09c-.6.94-2.02.62-2.16-.46l-.04-.31c-.38-2.93.61-5.88,2.68-7.99l.18-.18c.48-.49-.03-1.29-.68-1.06l-.38.14c-4.83,1.72-9.03,4.88-12.01,9.06l-.15.21c-3.38,4.73-4.58,10.68-3.29,16.34,1.21,5.33,2.69,11.89,3.67,16.25.29,1.29-1.32,2.12-2.2,1.14-.7-.77-1.41-1.57-2.06-2.29-.37-.41-1.02.03-.78.53l2.03,4.16c1.76,3.62,4.08,6.93,6.87,9.84l1,1.05c.62.65.34,1.74-.52,1.99-1.71.5-3.16.18-5.5-2.07-.46-.45-1.2-1.44-1.86-2.39-.33-.48-1.08-.24-1.08.34h0c.76,4.85,4.11,8.9,8.73,10.57l3.52,1.27c2.36.85,4.3,2.57,5.42,4.81h0c.72,1.43,1.94,2.56,3.43,3.16l17.36,7.01c6.01,2.43,11.65,5.7,16.75,9.71h0c-.49.4-.71,1.05-.55,1.66l.09.34c.14.54-.11,1.11-.6,1.38l-.11.06c-.4.22-.89.16-1.24-.13l-.08-.07c-6.19-5.28-13.8-8.61-21.88-9.57-2.18-.26-4.28-.51-5.95-.71-1.44-.17-2.45,1.39-1.7,2.63l7.38,12.31c1.1,1.84,2.7,3.33,4.61,4.29l1.97,1c3.38,1.71,7.4,1.63,10.7-.24l.05-.03c1.15-.65,2.58-.56,3.64.23l.23.17c.98.73,1.4,1.99,1.05,3.16l-.27.92c-1.25,4.2-.47,10.74,1.75,14.52h0c2,3.41,1.75,7.66-.62,10.78-.36.48-.74.97-1.12,1.48-6.24,8.26-8.45,15.81-6.03,25.88h0c.18.73,1.12.93,1.58.34l4.28-5.45c-1.1,9.76,2.49,19.47,9.68,26.17h0c7.65,7.12,13.35,16.08,16.57,26.02.55,1.7.92,2.83.92,2.83l2.71-6.21c3.36-7.72,8.28-14.66,14.44-20.4l2.4-2.24c7.19-6.7,10.78-16.4,9.68-26.17h0s4.28,5.45,4.28,5.45c.46.59,1.4.39,1.58-.34h0c2.43-10.06.21-17.62-6.03-25.88-.38-.51-.76-1.01-1.12-1.48-2.37-3.13-2.62-7.37-.62-10.78h0c2.22-3.78,3.01-10.32,1.75-14.52l-.27-.92c-.35-1.17.07-2.43,1.05-3.16l.23-.17c1.06-.79,2.49-.88,3.64-.23l.05.03c3.31,1.86,7.32,1.95,10.7.24l1.97-1c1.91-.97,3.51-2.46,4.61-4.29l7.38-12.31c.75-1.25-.26-2.81-1.71-2.63-1.67.2-3.77.45-5.95.71-8.08.96-15.69,4.29-21.88,9.57l-.08.07c-.35.3-.84.35-1.24.13l-.11-.06c-.49-.27-.74-.84-.6-1.38l.09-.34c.16-.61-.06-1.26-.55-1.66h0c5.09-4.01,10.73-7.28,16.75-9.71l17.36-7.01c1.49-.6,2.71-1.72,3.43-3.16h0c1.12-2.24,3.07-3.96,5.42-4.81l3.52-1.27c4.62-1.66,7.97-5.72,8.73-10.57h0c0-.58-.75-.82-1.08-.34-.66.95-1.39,1.94-1.86,2.39-2.35,2.25-3.79,2.57-5.5,2.07-.87-.25-1.15-1.34-.52-1.99l1.01-1.05Z"/>
  <g>
    <path class="cls-1" d="M131.45,398.69c-3,0-5.68-1.87-6.72-4.68l-16.35-44.13-.28-.76h-3.31l-3.48,8.99-14.38,37.16c-.8,2.06-2.78,3.42-4.99,3.42h0c-.79,0-1.44.64-1.44,1.44h0c0,.79.64,1.44,1.44,1.44h13.95c.79,0,1.44-.64,1.44-1.44h0c0-.79-.64-1.44-1.44-1.44h-3.07c-1.6,0-2.71-1.61-2.13-3.11l4.65-12.02h15.4l4.48,12.08c.55,1.48-.55,3.05-2.12,3.05h-2.03c-.79,0-1.44.64-1.44,1.44h0c0,.79.64,1.44,1.44,1.44h20.39c.79,0,1.44-.64,1.44-1.44h0c0-.79-.64-1.44-1.44-1.44h0ZM96.84,379.67l6.36-16.44,6.09,16.44h-12.46Z"/>
    <path class="cls-1" d="M393.76,398.69c-3,0-5.68-1.87-6.72-4.68l-16.35-44.13-.28-.76h-3.31l-3.48,8.99-14.38,37.16c-.8,2.06-2.78,3.42-4.99,3.42h0c-.79,0-1.44.64-1.44,1.44h0c0,.79.64,1.44,1.44,1.44h13.95c.79,0,1.44-.64,1.44-1.44h0c0-.79-.64-1.44-1.44-1.44h-3.07c-1.6,0-2.71-1.61-2.13-3.11l4.65-12.02h15.4l4.48,12.08c.55,1.48-.55,3.05-2.12,3.05h-2.03c-.79,0-1.44.64-1.44,1.44h0c0,.79.64,1.44,1.44,1.44h20.39c.79,0,1.44-.64,1.44-1.44h0c0-.79-.64-1.44-1.44-1.44h0ZM359.15,379.67l6.36-16.44,6.09,16.44h-12.46Z"/>
    <path class="cls-1" d="M207.01,385.97h0c0,6.46-5.24,11.7-11.7,11.7h-8.71c-.91,0-1.65-.74-1.65-1.65v-39.9c0-2.28,1.85-4.13,4.13-4.13h.26c.79,0,1.44-.64,1.44-1.44h0c0-.79-.64-1.44-1.44-1.44h-18.64c-.79,0-1.44.64-1.44,1.44h0c0,.79.64,1.44,1.44,1.44h0c2.28,0,4.13,1.85,4.13,4.13v38.45c0,2.28-1.85,4.13-4.13,4.13h0c-.79,0-1.44.64-1.44,1.44h0c0,.79.64,1.44,1.44,1.44h15.39s0-.02,0-.02h23.8v-15.58c0-.79-.64-1.44-1.44-1.44h0c-.79,0-1.44.64-1.44,1.44Z"/>
    <path class="cls-1" d="M312.65,350.55h0c0-.79-.64-1.44-1.44-1.44h-16.43s-16.01,40.84-16.01,40.84l-19.6-40.83h-12.03c-.79,0-1.44.65-1.44,1.44h0c0,.79.64,1.44,1.44,1.44h0c2.73,0,4.95,2.22,4.95,4.95v36.79c0,2.73-2.22,4.95-4.95,4.95h0c-.79,0-1.44.64-1.44,1.44h0c0,.79.64,1.44,1.44,1.44h13.95c.79,0,1.44-.64,1.44-1.44h0c0-.79-.64-1.44-1.44-1.44h-2.19c-1.62,0-2.93-1.31-2.93-2.93v-32.21l17.44,36.32c.49,1.03,1.53,1.68,2.67,1.68h0c1.22,0,2.31-.75,2.76-1.88l16.28-41.49v38.55c0,1.08-.88,1.96-1.96,1.96h-2.33c-.79,0-1.44.64-1.44,1.44h0c0,.79.64,1.44,1.44,1.44h20.39c.79,0,1.44-.64,1.44-1.44h0c0-.79-.64-1.44-1.44-1.44h0c-3.31,0-5.99-2.68-5.99-5.99v-34.74c0-3.31,2.68-5.99,5.99-5.99h0c.79,0,1.44-.64,1.44-1.44Z"/>
    <path class="cls-1" d="M589.5,362.59v-13.47h-43.8c-.79,0-1.44.64-1.44,1.43h0c0,.79.64,1.44,1.44,1.44h1.4c2.83,0,5.13,2.3,5.13,5.13v36.44c0,2.83-2.3,5.13-5.13,5.13h-1.4c-.79,0-1.44.64-1.44,1.44h0c0,.79.64,1.44,1.44,1.44l43.75-.02h0s.05,0,.05,0v-13.47c0-.79-.64-1.44-1.44-1.44h0c-.79,0-1.44.64-1.44,1.44h0c0,5.3-4.29,9.6-9.59,9.6h-14.7v-20.39h6.88c2.25,0,4.08,1.83,4.08,4.08h0c0,.79.64,1.44,1.44,1.44h0c.79,0,1.44-.64,1.44-1.44v-12.04c0-.79-.64-1.44-1.44-1.44h0c-.79,0-1.44.64-1.44,1.44h0c0,2.25-1.83,4.08-4.08,4.08h-6.88v-20.39h14.7c5.3,0,9.59,4.29,9.59,9.59h0c0,.79.64,1.44,1.44,1.44h0c.79,0,1.44-.64,1.44-1.44Z"/>
    <path class="cls-1" d="M452.02,350.54h0c0,.79.64,1.44,1.44,1.44h3.01c2.99,0,5.41,2.42,5.41,5.41v35.89c0,2.99-2.42,5.41-5.41,5.41h-3.01c-.79,0-1.44.64-1.44,1.44h0c0,.79.64,1.44,1.44,1.44h32.17c13.26-.02,24.01-10.77,24.01-24.03v-4.41c0-13.26-10.75-24.01-24.01-24.02h-32.17c-.79-.01-1.44.63-1.44,1.43ZM474.9,398.07h-2.91v-45.22h2.91c11.9,0,21.54,9.65,21.54,21.54v2.13c0,11.9-9.65,21.54-21.54,21.54Z"/>
    <path class="cls-1" d="M734.49,348.43c-14.86,0-26.9,12.03-26.9,26.87s12.05,26.87,26.9,26.87,26.9-12.03,26.9-26.87-12.05-26.87-26.9-26.87ZM734.49,398.33c-9.02,0-16.33-10.31-16.33-23.03s7.31-23.03,16.33-23.03,16.33,10.31,16.33,23.03-7.31,23.03-16.33,23.03Z"/>
    <path class="cls-1" d="M672.79,387.9h0c0-1-1.35-1.32-1.8-.42-3.2,6.5-8.96,10.85-15.54,10.85-10.05,0-18.2-10.12-18.2-22.61s8.15-22.61,18.2-22.61c3.48,0,6.73,2.33,9.49,5.21,2.4,2.5,3.68,5.87,3.68,9.33h0c0,.79.64,1.44,1.44,1.44h0c.79,0,1.44-.64,1.44-1.44v-16.24c0-.79-.64-1.44-1.44-1.44h0c-.79,0-1.44.64-1.44,1.44v.71c0,.4-.44.63-.77.42-4.14-2.6-9.03-4.11-14.28-4.11-14.86,0-26.9,12.03-26.9,26.87s12.05,26.87,26.9,26.87c8.58,0,15.19-5.04,19.93-11.46.7-.94.35-2.3-.72-2.8Z"/>
  </g>
  <path class="cls-1" d="M812.96,457.04H28.93v-163.22h317.2c1.46,0,2.63,1.18,2.63,2.64s-1.18,2.64-2.63,2.64H34.2v152.68h773.5v-152.68h-304.95c-1.45,0-2.64-1.18-2.64-2.64s1.18-2.64,2.64-2.64h310.22v163.22Z"/>
</svg>
